<?xml version="1.0" encoding="UTF-8" standalone="no"?>
<svg
   xmlns:dc="http://purl.org/dc/elements/1.1/"
   xmlns:cc="http://creativecommons.org/ns#"
   xmlns:rdf="http://www.w3.org/1999/02/22-rdf-syntax-ns#"
   xmlns:svg="http://www.w3.org/2000/svg"
   xmlns="http://www.w3.org/2000/svg"
   xmlns:sodipodi="http://sodipodi.sourceforge.net/DTD/sodipodi-0.dtd"
   xmlns:inkscape="http://www.inkscape.org/namespaces/inkscape"
   viewBox="0 0 18.999999 18.999999"
   version="1.1"
   id="svg12"
   sodipodi:docname="drupal-9-logo.svg"
   width="19"
   height="19"
   inkscape:version="0.92.5 (2060ec1f9f, 2020-04-08)">
  <metadata
     id="metadata16">
    <rdf:RDF>
      <cc:Work
         rdf:about="">
        <dc:format>image/svg+xml</dc:format>
        <dc:type
           rdf:resource="http://purl.org/dc/dcmitype/StillImage" />
        <dc:title>Risorsa 23</dc:title>
      </cc:Work>
    </rdf:RDF>
  </metadata>
  <sodipodi:namedview
     pagecolor="#ffffff"
     bordercolor="#666666"
     borderopacity="1"
     objecttolerance="10"
     gridtolerance="10"
     guidetolerance="10"
     inkscape:pageopacity="0"
     inkscape:pageshadow="2"
     inkscape:window-width="1018"
     inkscape:window-height="651"
     id="namedview14"
     showgrid="false"
     inkscape:zoom="16.880149"
     inkscape:cx="9.5689834"
     inkscape:cy="9.1022037"
     inkscape:window-x="150"
     inkscape:window-y="85"
     inkscape:window-maximized="0"
     inkscape:current-layer="svg12" />
  <defs
     id="defs4">
    <style
       id="style2">.cls-1{fill:#009cde;}</style>
  </defs>
  <title
     id="title6">Risorsa 23</title>
  <g
     id="Livello_2"
     data-name="Livello 2"
     transform="matrix(0.33604266,0,0,0.33604266,2.4179009,0.16824615)"
     inkscape:export-xdpi="96"
     inkscape:export-ydpi="96">
    <g
       id="Livello_1-2"
       data-name="Livello 1">
      <path
         class="cls-1"
         d="M 29.75,11.73 C 25.87,7.86 22.18,4.16 21.08,0 20,4.16 16.28,7.86 12.4,11.73 6.59,17.54 0,24.12 0,34 a 21.08,21.08 0 1 0 42.15,0 c 0,-9.88 -6.59,-16.46 -12.4,-22.27 z M 10.84,35.92 a 14.13,14.13 0 0 0 -1.65,2.62 0.54,0.54 0 0 1 -0.36,0.3 H 8.65 c -0.47,0 -1,-0.92 -1,-0.92 v 0 C 7.51,37.7 7.38,37.47 7.25,37.23 L 7.16,37.04 C 5.94,34.25 7,30.28 7,30.28 v 0 a 17.42,17.42 0 0 1 2.52,-5.41 31.53,31.53 0 0 1 2.28,-3 l 1,1 4.72,4.82 a 0.54,0.54 0 0 1 0,0.72 l -4.93,5.47 v 0 z m 10.48,13.81 a 7.29,7.29 0 0 1 -5.4,-12.14 c 1.54,-1.83 3.42,-3.63 5.46,-6 2.42,2.58 4,4.35 5.55,6.29 a 3.08,3.08 0 0 1 0.32,0.48 7.15,7.15 0 0 1 1.3,4.12 7.23,7.23 0 0 1 -7.23,7.25 z M 35,38.14 v 0 a 0.84,0.84 0 0 1 -0.67,0.58 h -0.14 a 1.22,1.22 0 0 1 -0.68,-0.55 v 0 a 37.77,37.77 0 0 0 -4.28,-5.31 l -1.93,-2 -6.41,-6.65 a 54,54 0 0 1 -3.84,-3.94 1.3,1.3 0 0 0 -0.1,-0.15 3.84,3.84 0 0 1 -0.51,-1 c 0,-0.06 0,-0.13 0,-0.19 a 3.4,3.4 0 0 1 1,-3 c 1.24,-1.24 2.49,-2.49 3.67,-3.79 1.3,1.44 2.69,2.82 4.06,4.19 v 0 A 57.6,57.6 0 0 1 32.72,24.91 16,16 0 0 1 35.65,34 14.55,14.55 0 0 1 35,38.14 Z"
         id="path8"
         inkscape:connector-curvature="0"
         style="fill:#009cde" />
    </g>
  </g>
</svg>
